<?xml version="1.0" encoding="UTF-8" ?>
<!DOCTYPE svg PUBLIC "-//W3C//DTD SVG 1.1//EN" "http://www.w3.org/Graphics/SVG/1.1/DTD/svg11.dtd">
<svg width="1046pt" height="1046pt" viewBox="0 0 1046 1046" version="1.1" xmlns="http://www.w3.org/2000/svg">
<g id="#161616ff">
<path fill="#161616" opacity="1.00" d=" M 0.00 0.00 L 1046.00 0.00 L 1046.00 1046.00 L 0.00 1046.00 L 0.00 0.00 M 281.70 246.41 C 281.66 262.80 281.70 279.19 281.68 295.58 C 294.22 295.71 306.76 295.59 319.30 295.64 C 319.26 360.59 319.25 425.54 319.30 490.50 C 340.60 490.46 361.90 490.56 383.20 490.45 C 383.25 425.50 383.21 360.56 383.21 295.61 C 395.69 295.67 408.18 295.63 420.66 295.62 C 420.70 279.21 420.66 262.80 420.68 246.39 C 374.36 246.37 328.03 246.33 281.70 246.41 M 434.57 246.39 C 434.57 327.75 434.53 409.11 434.59 490.47 C 455.90 490.50 477.21 490.50 498.52 490.48 C 498.49 453.84 498.55 417.21 498.48 380.57 C 500.33 380.65 502.18 380.74 504.03 380.82 C 506.90 381.49 510.04 381.74 512.48 383.56 C 515.18 385.38 515.58 388.89 516.19 391.83 C 516.79 397.53 517.34 403.25 517.26 408.98 C 517.26 436.15 517.23 463.31 517.28 490.48 C 537.03 490.50 556.79 490.51 576.55 490.47 C 576.60 468.00 576.56 445.53 576.57 423.05 C 576.47 413.40 576.67 403.72 575.61 394.11 C 575.20 386.50 570.80 379.81 565.90 374.26 C 559.66 368.10 550.97 365.47 542.78 363.04 C 552.73 362.24 563.91 359.46 569.93 350.78 C 574.66 343.14 575.38 333.89 576.25 325.17 C 576.90 311.88 576.84 298.40 573.88 285.36 C 571.35 272.77 563.85 261.00 552.60 254.52 C 539.74 247.10 524.30 248.09 510.02 246.79 C 484.88 246.07 459.72 246.47 434.57 246.39 M 617.96 246.56 C 616.15 265.41 613.14 284.14 610.83 302.93 C 602.64 365.45 594.12 427.93 586.17 490.48 C 608.22 490.50 630.27 490.52 652.31 490.47 C 653.26 475.85 655.02 461.30 655.83 446.67 C 663.30 446.65 670.77 446.67 678.25 446.65 C 679.19 461.27 680.16 475.90 681.44 490.50 C 703.20 490.47 724.96 490.53 746.73 490.47 C 734.69 409.10 722.55 327.74 710.42 246.39 C 679.60 246.47 648.77 246.14 617.96 246.56 M 757.15 246.36 C 756.54 257.89 757.23 269.45 756.83 281.00 C 756.94 308.67 756.87 336.32 756.84 364.00 C 756.83 368.99 756.84 373.99 756.84 378.99 C 756.83 392.33 756.85 405.67 756.84 419.01 C 756.85 426.36 757.21 433.68 756.82 441.03 C 756.86 452.67 756.84 464.31 756.84 475.95 C 756.92 480.81 756.55 485.69 757.22 490.52 C 778.40 490.45 799.57 490.51 820.74 490.49 C 820.80 457.81 820.81 425.12 820.75 392.44 C 838.40 392.32 857.13 393.73 873.45 385.65 C 881.60 381.78 888.28 374.70 890.74 365.91 C 894.31 353.61 893.92 340.66 893.83 327.99 C 893.81 317.65 893.98 307.30 893.52 296.96 C 892.92 286.05 891.39 274.50 884.63 265.51 C 880.70 259.55 874.41 255.79 868.08 252.85 C 855.37 247.80 841.55 246.75 828.02 246.43 C 804.40 246.29 780.77 246.42 757.15 246.36 M 132.29 526.40 C 147.08 576.20 161.89 625.98 176.67 675.78 C 177.41 678.46 178.62 681.09 178.54 683.94 C 178.55 712.78 178.49 741.62 178.56 770.46 C 198.27 770.51 217.97 770.46 237.68 770.49 C 237.81 741.65 237.71 712.82 237.72 683.98 C 237.77 682.59 237.99 681.24 238.41 679.92 C 250.98 636.20 263.46 592.45 276.01 548.72 C 277.88 541.72 280.35 534.88 281.55 527.72 C 281.84 543.67 281.61 559.63 281.68 575.58 C 294.25 575.66 306.83 575.62 319.40 575.60 C 319.37 640.56 319.37 705.52 319.40 770.48 C 340.71 770.46 362.02 770.51 383.32 770.45 C 383.33 705.49 383.35 640.53 383.31 575.56 C 395.76 575.68 408.21 575.60 420.65 575.61 C 420.70 559.20 420.68 542.78 420.67 526.37 C 354.98 526.36 289.28 526.36 223.59 526.37 C 218.40 553.48 213.31 580.63 209.64 607.99 C 209.14 610.89 209.72 614.12 208.11 616.73 C 203.46 586.45 197.63 556.36 191.17 526.41 C 171.54 526.32 151.92 526.34 132.29 526.40 M 501.00 526.74 C 489.50 527.58 477.78 527.56 466.58 530.68 C 452.21 534.95 441.05 547.50 437.44 561.91 C 433.17 578.24 433.10 595.41 434.86 612.11 C 436.00 619.79 437.43 628.15 443.05 633.94 C 449.75 640.13 459.11 642.47 468.00 643.01 C 462.20 644.52 456.44 646.39 451.19 649.32 C 444.18 653.07 439.28 659.88 436.26 667.09 C 433.45 675.40 434.74 684.34 433.83 692.93 C 433.64 718.76 433.80 744.60 433.75 770.43 C 453.61 770.51 473.46 770.49 493.31 770.45 C 493.34 741.27 493.24 712.10 493.37 682.93 C 493.77 676.77 493.40 669.99 496.73 664.55 C 500.70 660.81 506.66 660.91 511.77 660.51 C 511.86 697.15 511.76 733.78 511.81 770.42 C 533.13 770.53 554.44 770.49 575.76 770.44 C 575.72 689.07 575.78 607.71 575.73 526.34 C 550.82 526.48 525.91 526.07 501.00 526.74 M 622.43 526.37 C 613.43 585.48 604.88 644.67 595.88 703.79 C 592.81 726.03 589.14 748.20 586.14 770.45 C 607.92 770.49 629.69 770.49 651.47 770.46 C 652.53 755.85 653.62 741.24 654.63 726.63 C 662.01 726.65 669.40 726.66 676.79 726.63 C 678.09 741.23 679.32 755.85 680.58 770.46 C 702.63 770.49 724.68 770.48 746.73 770.47 C 736.04 689.09 725.30 607.73 714.45 526.37 C 683.78 526.34 653.10 526.37 622.43 526.37 M 768.52 536.75 C 759.28 542.38 754.02 552.62 751.84 562.93 C 749.28 581.17 749.85 599.63 749.80 618.00 C 750.42 629.08 750.40 640.64 755.14 650.93 C 759.45 660.01 768.55 665.71 777.87 668.63 C 792.50 673.40 808.06 672.24 823.20 672.46 C 823.12 679.30 823.18 686.15 823.16 693.00 C 823.16 705.66 823.16 718.32 823.16 730.98 C 823.17 744.14 823.14 757.31 823.18 770.48 C 844.38 770.47 865.58 770.49 886.79 770.47 C 886.82 689.10 886.82 607.73 886.78 526.36 C 862.53 526.41 838.27 526.24 814.02 526.46 C 798.49 527.05 782.00 528.23 768.52 536.75 Z" />
<path fill="#161616" opacity="1.00" d=" M 820.77 288.54 C 825.52 288.66 830.52 288.82 834.85 291.01 C 839.41 293.59 839.86 299.37 840.36 304.03 C 840.59 312.34 840.40 320.66 840.47 328.98 C 840.42 334.32 840.18 339.89 837.91 344.81 C 835.16 349.61 829.03 350.23 824.05 350.26 C 822.91 350.24 820.89 350.43 820.80 348.88 C 820.74 328.77 820.82 308.65 820.77 288.54 Z" />
<path fill="#161616" opacity="1.00" d=" M 498.50 288.47 C 503.24 288.78 508.35 288.94 512.48 291.58 C 516.48 294.69 516.75 300.24 517.21 304.89 C 517.18 314.28 517.78 323.76 516.18 333.07 C 515.65 335.91 514.30 338.94 511.48 340.16 C 507.38 341.86 502.88 342.06 498.51 342.37 C 498.51 324.40 498.53 306.43 498.50 288.47 Z" />
<path fill="#161616" opacity="1.00" d=" M 655.27 402.78 C 658.01 369.07 662.82 335.57 667.02 302.02 C 667.72 317.38 669.45 332.67 670.66 348.00 C 672.49 366.29 674.00 384.62 676.40 402.85 C 669.35 402.77 662.31 402.89 655.27 402.78 Z" />
<path fill="#161616" opacity="1.00" d=" M 496.31 573.14 C 500.13 568.84 506.50 568.89 511.79 568.44 C 511.79 586.41 511.82 604.38 511.79 622.35 C 506.52 621.58 499.92 622.27 496.08 617.89 C 492.31 610.53 493.59 601.95 493.31 593.99 C 493.60 587.04 492.19 579.26 496.31 573.14 Z" />
<path fill="#161616" opacity="1.00" d=" M 807.82 571.84 C 812.21 568.67 817.99 568.77 823.18 568.53 C 823.14 587.34 823.17 606.15 823.17 624.96 C 823.13 626.72 822.90 628.48 822.70 630.25 C 818.09 630.19 813.09 630.40 809.01 627.93 C 804.68 625.15 804.18 619.59 803.66 614.94 C 803.25 605.29 803.53 595.62 803.49 585.97 C 803.72 581.10 803.95 575.35 807.82 571.84 Z" />
<path fill="#161616" opacity="1.00" d=" M 664.95 582.16 C 665.28 582.34 665.58 582.58 665.85 582.88 C 670.10 616.08 674.80 649.38 677.55 682.80 C 670.51 682.85 663.47 682.77 656.43 682.82 C 658.88 663.61 660.52 644.32 662.41 625.05 C 663.49 611.15 665.04 597.29 665.74 583.37 L 664.95 582.16 Z" />
</g>
<g id="#ffffffff">
<path fill="#ffffff" opacity="1.00" d=" M 281.70 246.41 C 328.03 246.33 374.36 246.37 420.68 246.39 C 420.66 262.80 420.70 279.21 420.66 295.62 C 408.18 295.63 395.69 295.67 383.21 295.61 C 383.21 360.56 383.25 425.50 383.20 490.45 C 361.90 490.56 340.60 490.46 319.30 490.50 C 319.25 425.54 319.26 360.59 319.30 295.64 C 306.76 295.59 294.22 295.71 281.68 295.58 C 281.70 279.19 281.66 262.80 281.70 246.41 Z" />
<path fill="#ffffff" opacity="1.00" d=" M 434.57 246.39 C 459.72 246.47 484.88 246.07 510.02 246.79 C 524.30 248.09 539.74 247.10 552.60 254.52 C 563.85 261.00 571.35 272.77 573.88 285.36 C 576.84 298.40 576.90 311.88 576.25 325.17 C 575.38 333.89 574.66 343.14 569.93 350.78 C 563.91 359.46 552.73 362.24 542.78 363.04 C 550.97 365.47 559.66 368.10 565.90 374.26 C 570.80 379.81 575.20 386.50 575.61 394.11 C 576.67 403.72 576.47 413.40 576.57 423.05 C 576.56 445.53 576.60 468.00 576.55 490.47 C 556.79 490.51 537.03 490.50 517.28 490.48 C 517.23 463.31 517.26 436.15 517.26 408.98 C 517.34 403.25 516.79 397.53 516.19 391.83 C 515.58 388.89 515.18 385.38 512.48 383.56 C 510.04 381.74 506.90 381.49 504.03 380.82 C 502.18 380.74 500.33 380.65 498.48 380.57 C 498.55 417.21 498.49 453.84 498.52 490.48 C 477.21 490.50 455.90 490.50 434.59 490.47 C 434.53 409.11 434.57 327.75 434.57 246.39 M 498.50 288.47 C 498.53 306.43 498.51 324.40 498.51 342.37 C 502.88 342.06 507.38 341.86 511.48 340.16 C 514.30 338.94 515.65 335.91 516.18 333.07 C 517.78 323.76 517.18 314.28 517.21 304.89 C 516.75 300.24 516.48 294.69 512.48 291.58 C 508.35 288.94 503.24 288.78 498.50 288.47 Z" />
<path fill="#ffffff" opacity="1.00" d=" M 617.96 246.56 C 648.77 246.14 679.60 246.47 710.42 246.39 C 722.55 327.74 734.69 409.10 746.73 490.47 C 724.96 490.53 703.20 490.47 681.44 490.50 C 680.16 475.90 679.19 461.27 678.25 446.65 C 670.77 446.67 663.30 446.65 655.83 446.67 C 655.02 461.30 653.26 475.85 652.31 490.47 C 630.27 490.52 608.22 490.50 586.17 490.48 C 594.12 427.93 602.64 365.45 610.83 302.93 C 613.14 284.14 616.15 265.41 617.96 246.56 M 655.27 402.78 C 662.31 402.89 669.35 402.77 676.40 402.85 C 674.00 384.62 672.49 366.29 670.66 348.00 C 669.45 332.67 667.72 317.38 667.02 302.02 C 662.82 335.57 658.01 369.07 655.27 402.78 Z" />
<path fill="#ffffff" opacity="1.00" d=" M 757.15 246.36 C 780.77 246.42 804.40 246.29 828.02 246.43 C 841.55 246.75 855.37 247.80 868.08 252.85 C 874.41 255.79 880.70 259.55 884.63 265.51 C 891.39 274.50 892.92 286.05 893.52 296.96 C 893.98 307.30 893.81 317.65 893.83 327.99 C 893.92 340.66 894.31 353.61 890.74 365.91 C 888.28 374.70 881.60 381.78 873.45 385.65 C 857.13 393.73 838.40 392.32 820.75 392.44 C 820.81 425.12 820.80 457.81 820.74 490.49 C 799.57 490.51 778.40 490.45 757.22 490.52 C 756.55 485.69 756.92 480.81 756.84 475.95 C 756.84 464.31 756.86 452.67 756.82 441.03 C 757.21 433.68 756.85 426.36 756.84 419.01 C 756.85 405.67 756.83 392.33 756.84 378.99 C 756.84 373.99 756.83 368.99 756.84 364.00 C 756.87 336.32 756.94 308.67 756.83 281.00 C 757.23 269.45 756.54 257.89 757.15 246.36 M 820.77 288.54 C 820.82 308.65 820.74 328.77 820.80 348.88 C 820.89 350.43 822.91 350.24 824.05 350.26 C 829.03 350.23 835.16 349.61 837.91 344.81 C 840.18 339.89 840.42 334.32 840.47 328.98 C 840.40 320.66 840.59 312.34 840.36 304.03 C 839.86 299.37 839.41 293.59 834.85 291.01 C 830.52 288.82 825.52 288.66 820.77 288.54 Z" />
<path fill="#ffffff" opacity="1.00" d=" M 132.29 526.40 C 151.92 526.34 171.54 526.32 191.17 526.41 C 197.63 556.36 203.46 586.45 208.11 616.73 C 209.72 614.12 209.14 610.89 209.64 607.99 C 213.31 580.63 218.40 553.48 223.59 526.37 C 289.28 526.36 354.98 526.36 420.67 526.37 C 420.68 542.78 420.70 559.20 420.65 575.61 C 408.21 575.60 395.76 575.68 383.31 575.56 C 383.35 640.53 383.33 705.49 383.32 770.45 C 362.02 770.51 340.71 770.46 319.40 770.48 C 319.37 705.52 319.37 640.56 319.40 575.60 C 306.83 575.62 294.25 575.66 281.68 575.58 C 281.61 559.63 281.84 543.67 281.55 527.72 C 280.35 534.88 277.88 541.72 276.01 548.72 C 263.46 592.45 250.98 636.20 238.41 679.92 C 237.99 681.24 237.77 682.59 237.72 683.98 C 237.71 712.82 237.81 741.65 237.68 770.49 C 217.97 770.46 198.27 770.51 178.56 770.46 C 178.49 741.62 178.55 712.78 178.54 683.94 C 178.62 681.09 177.41 678.46 176.67 675.78 C 161.89 625.98 147.08 576.20 132.29 526.40 Z" />
<path fill="#ffffff" opacity="1.00" d=" M 501.00 526.74 C 525.91 526.07 550.82 526.48 575.73 526.34 C 575.78 607.71 575.72 689.07 575.76 770.44 C 554.44 770.49 533.13 770.53 511.81 770.42 C 511.76 733.78 511.86 697.15 511.77 660.51 C 506.66 660.91 500.70 660.81 496.73 664.55 C 493.40 669.99 493.77 676.77 493.37 682.93 C 493.24 712.10 493.34 741.27 493.31 770.45 C 473.46 770.49 453.61 770.51 433.75 770.43 C 433.80 744.60 433.64 718.76 433.83 692.93 C 434.74 684.34 433.45 675.40 436.26 667.09 C 439.28 659.88 444.18 653.07 451.19 649.32 C 456.44 646.39 462.20 644.52 468.00 643.01 C 459.11 642.47 449.75 640.13 443.05 633.94 C 437.43 628.15 436.00 619.79 434.86 612.11 C 433.10 595.41 433.17 578.24 437.44 561.91 C 441.05 547.50 452.21 534.95 466.58 530.68 C 477.78 527.56 489.50 527.58 501.00 526.74 M 496.31 573.14 C 492.19 579.26 493.60 587.04 493.31 593.99 C 493.59 601.95 492.31 610.53 496.08 617.89 C 499.92 622.27 506.52 621.58 511.79 622.35 C 511.82 604.38 511.79 586.41 511.79 568.44 C 506.50 568.89 500.13 568.84 496.31 573.14 Z" />
<path fill="#ffffff" opacity="1.00" d=" M 622.43 526.37 C 653.10 526.37 683.78 526.34 714.45 526.37 C 725.30 607.73 736.04 689.09 746.73 770.47 C 724.68 770.48 702.63 770.49 680.58 770.46 C 679.32 755.85 678.09 741.23 676.79 726.63 C 669.40 726.66 662.01 726.65 654.63 726.63 C 653.62 741.24 652.53 755.85 651.47 770.46 C 629.69 770.49 607.92 770.49 586.14 770.45 C 589.14 748.20 592.81 726.03 595.88 703.79 C 604.88 644.67 613.43 585.48 622.43 526.37 M 664.95 582.16 L 665.74 583.37 C 665.04 597.29 663.49 611.15 662.41 625.05 C 660.52 644.32 658.88 663.61 656.43 682.82 C 663.47 682.77 670.51 682.85 677.55 682.80 C 674.80 649.38 670.10 616.08 665.85 582.88 C 665.58 582.58 665.28 582.34 664.95 582.16 Z" />
<path fill="#ffffff" opacity="1.00" d=" M 768.52 536.75 C 782.00 528.23 798.49 527.05 814.02 526.46 C 838.27 526.24 862.53 526.41 886.78 526.36 C 886.82 607.73 886.82 689.10 886.79 770.47 C 865.58 770.49 844.38 770.47 823.18 770.48 C 823.14 757.31 823.17 744.14 823.16 730.98 C 823.16 718.32 823.16 705.66 823.16 693.00 C 823.18 686.15 823.12 679.30 823.20 672.46 C 808.06 672.24 792.50 673.40 777.87 668.63 C 768.55 665.71 759.45 660.01 755.14 650.93 C 750.40 640.64 750.42 629.08 749.80 618.00 C 749.85 599.63 749.28 581.17 751.84 562.93 C 754.02 552.62 759.28 542.38 768.52 536.75 M 807.82 571.84 C 803.95 575.35 803.72 581.10 803.49 585.97 C 803.53 595.62 803.25 605.29 803.66 614.94 C 804.18 619.59 804.68 625.15 809.01 627.93 C 813.09 630.40 818.09 630.19 822.70 630.25 C 822.90 628.48 823.13 626.72 823.17 624.96 C 823.17 606.15 823.14 587.34 823.18 568.53 C 817.99 568.77 812.21 568.67 807.82 571.84 Z" />
</g>
</svg>
