<?xml version="1.0" standalone="no"?>
<!DOCTYPE svg PUBLIC "-//W3C//DTD SVG 20010904//EN"
 "http://www.w3.org/TR/2001/REC-SVG-20010904/DTD/svg10.dtd">
<svg version="1.0" xmlns="http://www.w3.org/2000/svg"
 width="1046.000000pt" height="1046.000000pt" viewBox="0 0 1046.000000 1046.000000"
 preserveAspectRatio="xMidYMid meet">
<metadata>
Created by potrace 1.11, written by Peter Selinger 2001-2013
</metadata>
<g transform="translate(0.000000,1046.000000) scale(0.100000,-0.100000)"
fill="#000000" stroke="none">
<path d="M0 5230 l0 -5230 5230 0 5230 0 0 5230 0 5230 -5230 0 -5230 0 0
-5230z m4205 2520 l0 -245 -187 -3 -188 -2 -2 -973 -3 -972 -315 0 -315 0 -3
973 -2 972 -185 0 -185 0 0 250 0 250 693 -2 692 -3 0 -245z m1075 230 c224
-25 335 -93 415 -255 51 -105 68 -200 67 -400 0 -334 -52 -435 -247 -481 l-73
-17 63 -22 c115 -40 171 -88 221 -187 23 -46 27 -70 35 -208 5 -85 8 -312 7
-505 l-3 -350 -260 -1 c-143 0 -277 1 -297 4 l-37 5 -3 496 c-4 522 -5 542
-49 570 -12 7 -46 15 -75 18 l-54 6 0 -546 c0 -511 -1 -546 -17 -550 -10 -3
-153 -4 -318 -3 l-300 1 -3 1224 -2 1224 417 -6 c230 -3 461 -11 513 -17z
m1937 -740 c62 -415 142 -955 178 -1200 37 -245 68 -452 71 -461 3 -10 -2 -18
-13 -21 -24 -6 -630 -4 -636 2 -3 3 -10 82 -16 175 -6 94 -14 189 -17 213 l-5
42 -108 0 -108 0 -6 -47 c-4 -27 -11 -115 -17 -198 -6 -82 -15 -160 -20 -172
-9 -21 -10 -21 -329 -20 -175 1 -322 4 -325 7 -2 3 10 120 29 260 53 395 201
1521 246 1859 22 167 42 308 45 313 3 4 211 7 462 6 l457 -3 112 -755z m1169
750 c269 -22 420 -95 493 -238 49 -95 55 -154 56 -507 0 -352 -5 -407 -50
-495 -13 -25 -44 -65 -70 -89 -94 -87 -222 -121 -454 -121 l-151 0 -2 -492 -3
-493 -315 0 -315 0 -3 1223 -2 1222 344 0 c188 0 401 -5 472 -10z m-6472
-2807 c14 -46 108 -530 137 -708 l33 -200 13 105 c14 112 80 510 116 700 l22
115 985 0 985 0 0 -245 0 -245 -187 -3 -188 -2 0 -970 0 -970 -320 0 -320 0 0
970 0 970 -185 0 -185 0 -2 232 -3 232 -218 -760 -217 -759 0 -442 0 -443
-295 0 -295 0 0 432 0 432 -230 773 c-126 426 -230 780 -230 788 0 13 42 15
289 15 267 0 290 -1 295 -17z m3844 -1205 l2 -1218 -320 0 -320 0 0 545 0 545
-42 0 c-24 0 -59 -8 -78 -18 -63 -31 -64 -38 -68 -584 l-4 -488 -294 0 -295 0
3 493 c4 546 2 530 73 626 40 56 95 93 187 126 l59 21 -58 13 c-213 48 -273
174 -260 545 8 234 42 345 140 453 61 66 163 118 262 134 113 17 348 26 690
25 l320 -1 3 -1217z m1410 1047 c12 -93 83 -631 157 -1195 74 -564 137 -1035
140 -1047 l5 -23 -333 0 -333 0 -13 158 c-6 86 -15 183 -18 215 l-6 57 -108 0
c-94 0 -108 -2 -113 -17 -2 -10 -10 -107 -17 -215 l-13 -198 -329 0 -329 0 6
28 c3 15 33 209 66 432 144 978 290 1956 295 1968 3 10 101 12 462 10 l458 -3
23 -170z m1702 -1045 l0 -1220 -320 0 -320 0 0 490 0 490 -150 0 c-340 0 -504
86 -557 293 -16 63 -18 113 -18 407 0 363 6 415 59 518 25 48 88 114 140 146
69 43 222 80 371 89 28 2 218 4 423 5 l372 2 0 -1220z"/>
<path d="M4990 7304 l0 -267 56 6 c109 11 124 43 124 274 0 121 -3 154 -18
183 -20 41 -71 70 -124 70 l-38 0 0 -266z"/>
<path d="M6632 7137 c-28 -214 -57 -470 -76 -659 l-5 -48 104 0 c73 0 105 4
105 12 0 6 -9 97 -20 202 -11 105 -31 314 -44 464 -14 151 -26 276 -28 278 -3
2 -19 -110 -36 -249z"/>
<path d="M8210 7265 l0 -305 46 0 c67 0 109 24 128 71 22 55 23 422 1 475 -17
41 -63 64 -130 64 l-45 0 0 -305z"/>
<path d="M5000 4752 c-58 -29 -65 -55 -65 -247 1 -106 5 -180 12 -197 17 -38
53 -58 117 -65 l56 -6 0 267 0 266 -42 0 c-24 0 -59 -8 -78 -18z"/>
<path d="M6657 4570 c-3 -8 -10 -82 -17 -165 -6 -82 -24 -282 -40 -444 -17
-162 -30 -302 -30 -312 0 -17 9 -19 101 -19 l102 0 -7 93 c-14 202 -100 870
-109 847z"/>
<path d="M8102 4755 c-58 -25 -67 -62 -66 -285 1 -228 9 -265 64 -292 19 -10
56 -18 83 -18 l47 0 0 305 0 305 -47 0 c-27 -1 -63 -7 -81 -15z"/>
</g>
</svg>
